<?xml version="1.0" standalone="no"?>
<!DOCTYPE svg PUBLIC "-//W3C//DTD SVG 20010904//EN"
 "http://www.w3.org/TR/2001/REC-SVG-20010904/DTD/svg10.dtd">
<svg version="1.0" xmlns="http://www.w3.org/2000/svg"
 width="1280.000000pt" height="1013.000000pt" viewBox="0 0 1280.000000 1013.000000"
 preserveAspectRatio="xMidYMid meet">
<g transform="translate(0.000000,1013.000000) scale(0.100000,-0.100000)"
fill="#000000" stroke="none">
<path d="M6210 10038 c-7 -29 -33 -127 -57 -218 -232 -875 -464 -1253 -684
-1111 -114 74 -211 225 -330 516 -55 134 -58 140 -84 138 -15 -1 -30 -4 -32
-7 -3 -2 1 -98 7 -213 23 -391 -8 -685 -86 -803 -70 -105 -182 -72 -359 105
-177 177 -430 535 -686 972 -30 51 -59 93 -65 93 -5 0 -19 -6 -29 -14 -19 -13
-17 -21 48 -222 121 -379 174 -609 184 -794 12 -229 -43 -303 -200 -270 -122
25 -312 139 -741 443 -137 97 -254 177 -261 177 -7 0 -20 -8 -29 -19 -16 -18
-14 -26 54 -171 117 -251 195 -464 236 -645 25 -108 25 -255 1 -317 -45 -117
-162 -154 -343 -108 -312 79 -748 358 -1213 777 -69 62 -126 111 -128 109 -2
-2 49 -171 113 -377 205 -663 238 -798 238 -999 1 -111 -2 -141 -17 -167 -37
-69 -132 -83 -259 -38 -40 14 -81 28 -90 31 -12 4 -21 -2 -29 -20 -12 -25 -7
-31 102 -143 209 -215 190 -241 -162 -229 l-196 7 -7 -27 c-8 -32 -18 -23 124
-116 182 -119 270 -210 270 -280 0 -94 -203 -166 -610 -217 -134 -17 -832 -81
-877 -81 -7 0 -13 -10 -12 -22 1 -45 203 -170 577 -357 310 -155 418 -214 530
-289 142 -96 219 -183 243 -275 24 -98 -45 -222 -192 -343 l-82 -68 59 -50
c206 -174 275 -303 211 -397 -56 -84 -185 -144 -544 -255 -224 -69 -407 -135
-426 -153 -12 -12 150 -87 261 -120 57 -17 219 -56 360 -86 308 -67 353 -78
457 -112 147 -47 240 -104 271 -166 55 -104 -69 -276 -352 -491 -71 -54 -130
-101 -132 -106 -2 -5 16 -14 40 -20 229 -58 390 -147 439 -241 99 -196 -207
-496 -1016 -999 -186 -115 -179 -109 -164 -144 12 -26 15 -27 63 -21 101 13
406 77 646 136 308 76 476 114 610 140 521 102 783 44 861 -188 19 -58 21 -80
16 -197 -4 -106 -11 -157 -41 -270 -19 -77 -34 -141 -33 -143 2 -1 100 61 218
138 233 152 378 230 479 256 89 22 133 13 186 -40 93 -95 121 -275 100 -662
l-8 -150 47 45 c26 25 107 113 180 195 283 321 386 424 508 506 173 115 249
49 264 -228 3 -62 7 -113 8 -113 2 0 63 29 136 65 291 140 477 168 591 89 49
-34 95 -126 110 -219 10 -66 6 -235 -8 -346 -6 -45 -5 -47 24 -57 l30 -10 58
96 c174 294 338 519 483 663 124 123 201 169 284 169 103 0 156 -44 330 -276
72 -95 134 -166 172 -196 32 -27 62 -48 66 -48 3 0 21 57 38 127 88 349 186
573 311 706 212 227 455 169 828 -197 l152 -149 -6 159 c-4 121 -2 179 10 243
31 171 98 195 248 88 111 -79 376 -369 524 -571 18 -25 22 -26 48 -15 22 10
27 18 23 38 -44 239 -45 295 -5 347 20 25 25 26 88 22 88 -7 208 -64 513 -245
127 -75 239 -137 250 -137 10 -1 25 8 33 19 12 18 5 30 -88 140 -226 271 -414
538 -498 710 -103 208 -103 328 -2 373 55 25 212 21 341 -7 483 -106 1378
-523 2391 -1115 l165 -96 18 21 c9 12 17 24 17 28 0 3 -44 40 -97 81 -247 190
-575 482 -778 691 -460 475 -665 839 -572 1019 61 120 217 168 512 157 250
-10 540 -59 958 -164 184 -47 189 -47 203 -28 8 10 14 24 14 30 0 7 -66 61
-147 122 -82 60 -218 161 -303 225 -432 321 -553 509 -439 681 89 134 361 260
784 362 99 24 208 49 243 56 62 12 63 12 60 42 -3 30 -5 31 -113 58 -180 44
-255 86 -255 139 0 56 118 115 283 141 l78 12 -3 31 -3 31 -92 7 c-162 11
-277 59 -334 140 -19 26 -24 45 -24 93 1 146 149 315 388 445 43 23 75 46 70
50 -4 4 -73 28 -152 54 -348 115 -595 249 -756 411 -85 86 -131 155 -168 251
-19 50 -22 78 -22 189 1 148 15 210 85 355 92 189 229 367 484 627 98 101 176
183 174 183 -3 0 -61 -12 -129 -26 -160 -33 -296 -42 -324 -21 -19 15 -19 15
0 58 25 57 226 259 448 449 92 79 167 148 167 155 0 6 -6 19 -14 30 -12 17
-16 17 -92 -15 -122 -51 -311 -116 -465 -160 -391 -113 -670 -144 -732 -81
-18 18 -19 24 -9 60 27 89 176 251 408 443 68 57 124 108 124 114 0 5 -6 19
-14 29 -17 23 -7 25 -566 -90 -479 -99 -696 -134 -874 -142 -221 -10 -362 21
-450 99 -58 50 -83 99 -95 182 -24 169 46 410 221 756 48 96 88 179 88 184 0
9 -30 35 -42 36 -4 0 -91 -98 -194 -217 -584 -678 -879 -946 -1218 -1109 -371
-178 -687 -157 -1039 68 l-77 50 -23 -28 c-50 -66 -101 -114 -118 -114 -30 0
-37 55 -43 340 -3 146 -11 285 -16 310 -6 25 -13 56 -16 70 -5 20 -31 -26
-142 -245 -197 -389 -291 -537 -372 -591 -62 -41 -95 -37 -146 19 -144 159
-260 779 -340 1822 -10 130 -22 223 -28 227 -6 4 -21 8 -33 8 -17 0 -23 -9
-33 -52z"/>
</g>
</svg>
