<?xml version="1.0" standalone="no"?>
<!DOCTYPE svg PUBLIC "-//W3C//DTD SVG 20010904//EN"
 "http://www.w3.org/TR/2001/REC-SVG-20010904/DTD/svg10.dtd">
<svg version="1.0" xmlns="http://www.w3.org/2000/svg"
 width="1280.000000pt" height="1188.000000pt" viewBox="0 0 1280.000000 1188.000000"
 preserveAspectRatio="xMidYMid meet">
<g transform="translate(0.000000,1188.000000) scale(0.100000,-0.100000)"
fill="#000000" stroke="none">
<path d="M7116 11595 l-78 -214 16 -358 c18 -394 20 -649 5 -553 -8 52 -59
706 -59 759 0 13 -3 21 -7 17 -4 -4 -356 -817 -783 -1808 -426 -991 -780
-1803 -787 -1805 -6 -2 -359 370 -783 827 -424 457 -773 830 -775 828 -3 -2 0
-463 5 -1023 13 -1398 13 -1405 -3 -1411 -8 -3 -794 283 -1748 635 -954 352
-1736 637 -1739 634 -3 -2 4 -12 15 -21 73 -60 2505 -2396 2505 -2406 0 -8
-324 -188 -729 -405 -401 -216 -736 -398 -745 -404 -14 -11 120 -59 835 -303
469 -159 854 -295 856 -301 4 -12 -2496 -1513 -2522 -1513 -22 0 -551 -283
-538 -287 5 -2 827 21 1827 52 2004 61 2005 61 2011 43 2 -7 20 -425 39 -928
30 -788 33 -918 21 -936 -12 -19 -11 -67 10 -349 13 -179 25 -328 27 -330 2
-2 366 444 808 991 443 546 812 994 820 994 9 0 164 -131 345 -291 589 -520
647 -571 651 -566 3 3 -9 29 -26 58 -52 87 -140 267 -140 285 0 16 2 15 20 -1
11 -10 22 -16 24 -14 3 2 48 103 100 224 93 212 127 276 112 210 -4 -16 -46
-137 -92 -267 l-86 -238 51 -118 c28 -65 51 -126 51 -135 0 -22 20 -33 31 -16
4 8 86 202 181 431 120 290 178 418 188 418 9 0 449 -261 979 -580 530 -319
967 -580 971 -580 5 0 7 24 4 53 -2 28 -13 228 -24 442 -12 215 -25 457 -30
540 -6 91 -6 153 0 159 6 6 628 -242 1592 -634 2039 -829 2220 -901 2224 -897
2 2 -601 651 -1339 1442 -738 791 -1343 1445 -1345 1454 -1 11 299 219 983
680 541 365 983 667 980 671 -2 4 -54 17 -116 30 -90 19 -117 21 -141 12 -25
-9 -138 6 -707 94 -372 58 -804 125 -960 149 -156 24 -289 49 -295 55 -7 7
301 322 1059 1081 l1070 1070 -135 -7 c-114 -5 -141 -10 -175 -29 -32 -19
-132 -38 -505 -100 -256 -42 -899 -148 -1429 -236 -530 -87 -974 -159 -987
-159 -13 0 -24 5 -24 11 0 6 126 488 281 1072 414 1565 429 1621 426 1623 -1
2 -48 -33 -103 -76 l-101 -79 -66 -193 c-36 -106 -95 -278 -130 -383 -36 -104
-207 -603 -381 -1107 -173 -505 -317 -922 -321 -928 -7 -12 -35 -14 -35 -2 0
4 87 260 194 568 106 307 303 873 436 1257 133 384 240 700 238 703 -2 2 -350
-262 -774 -587 -423 -325 -777 -595 -787 -600 -12 -7 -19 -6 -22 3 -4 13 -15
134 -70 781 -14 163 -36 429 -50 590 -14 160 -38 450 -55 642 -78 927 -112
1329 -130 1539 -11 126 -20 238 -20 248 0 47 -22 2 -94 -197z m3529 -7444
c-11 -9 -381 -230 -646 -384 -160 -94 -189 -107 -189 -88 0 5 159 99 353 209
482 274 509 288 482 263z m-890 -521 c-5 -8 -280 -170 -289 -170 -4 0 -6 6 -6
13 0 16 279 179 292 171 5 -3 6 -9 3 -14z m-136 -284 c13 -7 29 -25 35 -38 6
-14 570 -580 1254 -1258 683 -679 1242 -1237 1242 -1242 0 -12 -18 -10 -48 6
-15 8 -220 209 -457 448 -236 238 -800 804 -1252 1258 -453 454 -823 829 -823
833 0 11 22 8 49 -7z m-4098 -798 c123 -135 183 -208 171 -208 -11 0 -274 273
-280 290 -2 6 3 10 11 10 7 0 52 -42 98 -92z"/>
</g>
</svg>
